# xmcd CD database file
#
# Track frame offsets:
#	150
#	20257
#	35880
#	52342
#	68675
#	86630
#	102157
#	118425
#	128165
#	145975
#	164812
#	180900
#	200527
#	213652
#	231737
#	243562
#	265595
#	288432
#	302992
#	316200
#
# Disc length: 4397 seconds
#
# Revision: 0
# Processed by: cddbd v1.4PL0 Copyright (c) Steve Scherf et al.
# Submitted via: CDex 1.50beta10
#
DISCID=3c112b14
DTITLE=Various Artist - Dreams Of Passion
DYEAR=1900
DGENRE=Blues
TTITLE0=Lilly Was Here/Stewart
TTITLE1=Chi Mai/Morricone
TTITLE2=Crockett's Theme/Hammer
TTITLE3=Mammagamma/Barson
TTITLE4=Pipeline/Parons
TTITLE5=Deer Hunter/Myers
TTITLE6=Chariots Of Fire/Wangelis
TTITLE7=Wonderful Lamd/Iordan
TTITLE8=Once Upon A Time In The West/Morricone
TTITLE9=Oxygen/Jarre
TTITLE10=Bilitis/Lai
TTITLE11=The Lonely Shepherd/Last
TTITLE12=Atlantis/Iordan
TTITLE13=The Theme From "Antarctica"/Vangelis
TTITLE14=AddioA Chetenne/Morricone
TTITLE15=Going Home/Knopeler
TTITLE16=Song For Guy/John
TTITLE17=Moments In Love
TTITLE18=Travelling East/Clapton, Kamen
TTITLE19=Love Story/Clayderman
EXTD=
EXTT0=
EXTT1=
EXTT2=
EXTT3=
EXTT4=
EXTT5=
EXTT6=
EXTT7=
EXTT8=
EXTT9=
EXTT10=
EXTT11=
EXTT12=
EXTT13=
EXTT14=
EXTT15=
EXTT16=
EXTT17=
EXTT18=
EXTT19=
PLAYORDER=
